<?xml version="1.0" encoding="UTF-8" standalone="no"?>
<!-- Created with Inkscape (http://www.inkscape.org/) -->

<svg
   width="230"
   height="150"
   viewBox="0 0 60.854165 39.6875"
   version="1.1"
   id="svg2630"
   inkscape:version="1.2.1 (9c6d41e410, 2022-07-14)"
   sodipodi:docname="logo-supreme-withBackground-leather.svg"
   inkscape:export-filename="OneDrive\Documents\IMPORTANT\WildCodeSchool\PROJETS\Supremes\LOGO\Logo-Supremes-withBackground-leather.png"
   inkscape:export-xdpi="96"
   inkscape:export-ydpi="96"
   xmlns:inkscape="http://www.inkscape.org/namespaces/inkscape"
   xmlns:sodipodi="http://sodipodi.sourceforge.net/DTD/sodipodi-0.dtd"
   xmlns="http://www.w3.org/2000/svg"
   xmlns:svg="http://www.w3.org/2000/svg">
  <sodipodi:namedview
     id="namedview2632"
     pagecolor="#ffffff"
     bordercolor="#111111"
     borderopacity="1"
     inkscape:showpageshadow="0"
     inkscape:pageopacity="0"
     inkscape:pagecheckerboard="1"
     inkscape:deskcolor="#d1d1d1"
     inkscape:document-units="px"
     showgrid="false"
     inkscape:zoom="3.0453134"
     inkscape:cx="79.137996"
     inkscape:cy="67.316553"
     inkscape:window-width="1920"
     inkscape:window-height="986"
     inkscape:window-x="-11"
     inkscape:window-y="-11"
     inkscape:window-maximized="1"
     inkscape:current-layer="layer1"
     showguides="true">
    <sodipodi:guide
       position="30.495629,45.334838"
       orientation="1,0"
       id="guide7713"
       inkscape:locked="false" />
  </sodipodi:namedview>
  <defs
     id="defs2627">
    <clipPath
       clipPathUnits="userSpaceOnUse"
       id="clipPath2445">
      <path
         d="M 0,135 H 265 V 0 H 0 Z"
         id="path2443" />
    </clipPath>
  </defs>
  <g
     inkscape:label="Layer 1"
     inkscape:groupmode="layer"
     id="layer1">
    <path
       id="rect7711"
       style="fill:#852e01;fill-opacity:1;stroke-width:0.264583"
       d="M 7.9374993,0 V 33.072916 L 30.427082,39.687499 52.916665,33.072916 V 0 Z" />
    <g
       id="g2439"
       transform="matrix(0.23431735,0,0,-0.22602677,-0.66995319,35.24978)">
      <g
         id="g2441"
         clip-path="url(#clipPath2445)">
        <g
           id="g2447"
           transform="translate(68.2863,80.8017)">
          <path
             d="m 0,0 c 5.563,26.219 27.482,47.026 55.578,49.979 28.096,2.953 53.807,-12.848 64.755,-37.332 l 1.455,0.153 C 110.758,38.067 84.311,54.414 55.431,51.379 26.551,48.343 4.137,26.861 -1.455,-0.153 Z"
             style="fill:#ffffff;fill-opacity:1;fill-rule:nonzero;stroke:none"
             id="path2449" />
        </g>
        <g
           id="g2451"
           transform="translate(193.3354,57.7292)">
          <path
             d="m 0,0 c -4.317,-27.842 -26.905,-50.361 -56.177,-53.438 -29.327,-3.082 -56.109,14.305 -66.059,40.591 L -123.691,-13 c 10.094,-27.12 37.55,-45.002 67.662,-41.837 30.111,3.165 53.244,26.42 57.484,54.99 z"
             style="fill:#ffffff;fill-opacity:1;fill-rule:nonzero;stroke:none"
             id="path2453" />
        </g>
        <g
           id="g2455"
           transform="translate(187.7061,56.9112)">
          <path
             d="m 0,0 c -4.658,-24.596 -24.942,-44.27 -51.135,-47.023 -26.194,-2.753 -50.125,12.274 -59.801,35.42 l -1.455,-0.153 c 9.808,-23.868 34.482,-39.495 61.403,-36.666 26.921,2.83 47.812,23.19 52.437,48.631 L -0.006,0.056 Z"
             style="fill:#ffffff;fill-opacity:1;fill-rule:nonzero;stroke:none"
             id="path2457" />
        </g>
        <g
           id="g2459"
           transform="translate(73.7388,81.1485)">
          <path
             d="m 0,0 c 5.571,23.447 25.357,41.937 50.655,44.595 25.298,2.659 48.496,-11.313 58.758,-33.039 l 1.511,0.159 C 100.518,34.275 76.589,48.736 50.508,45.995 24.426,43.253 4.033,24.077 -1.461,-0.097 l 1.455,0.153 z"
             style="fill:#ffffff;fill-opacity:1;fill-rule:nonzero;stroke:none"
             id="path2461" />
        </g>
        <g
           id="g2463"
           transform="translate(17.6182,69.3822)">
          <path
             d="m 0,0 c 0.053,-0.504 0.138,-1.853 -2.442,-3.143 -0.074,0.162 -0.098,0.386 -0.121,0.61 -0.153,1.455 0.33,3.317 1.618,3.452 C -0.386,0.978 -0.071,0.672 0,0 M 1.343,0.141 C 1.264,1.434 0.481,2.427 -0.863,2.286 -3.046,2.057 -4.08,-0.485 -3.845,-2.724 c 0.03,-0.28 0.115,-0.554 0.145,-0.834 -0.386,-0.097 -0.834,-0.144 -1.394,-0.203 -3.638,-0.382 -6.489,0.903 -8.397,3.984 -0.142,0.268 -0.377,0.357 -0.657,0.327 -0.28,-0.029 -0.654,-0.238 -0.607,-0.686 0.012,-0.112 0.08,-0.218 0.091,-0.33 2.241,-3.556 5.514,-5.079 9.767,-4.632 0.56,0.059 1.058,0.168 1.562,0.22 0.471,-1.252 1.222,-2.474 1.923,-3.759 1.169,-1.97 2.344,-3.997 2.573,-6.18 0.424,-4.03 -2.169,-7.358 -6.423,-7.805 -3.414,-0.359 -6.28,1.603 -6.615,4.794 -0.317,3.022 1.695,5.95 4.549,6.25 1.959,0.206 3.485,-1.388 3.455,-3.259 -0.015,-0.397 0.356,-0.698 0.804,-0.651 0.336,0.035 0.53,0.339 0.563,0.569 0.026,0.285 0.009,0.453 -0.003,0.565 -0.259,2.463 -2.329,4.395 -4.96,4.119 -3.47,-0.365 -6.157,-3.873 -5.757,-7.679 0.412,-3.917 3.746,-6.566 8,-6.119 4.813,0.506 8.204,4.314 7.68,9.295 -0.258,2.463 -1.507,4.652 -2.744,6.729 -0.689,1.172 -1.378,2.345 -1.837,3.485 2.38,1.042 3.558,2.75 3.47,4.665"
             style="fill:#ffffff;fill-opacity:1;fill-rule:nonzero;stroke:none"
             id="path2465" />
        </g>
        <g
           id="g2467"
           transform="translate(36.146,57.1828)">
          <path
             d="m 0,0 c -0.118,0.044 -0.174,0.038 -0.286,0.027 -0.28,-0.03 -0.486,-0.221 -0.574,-0.457 -1.418,-4.28 -2.455,-6.256 -3.966,-6.415 -0.672,-0.071 -0.993,0.292 -1.093,1.243 -0.088,0.84 0.363,3.547 1.247,6.978 0.369,1.341 0.746,3.134 1.28,5.058 0.126,0.409 -0.262,0.878 -0.766,0.825 -0.28,-0.03 -0.486,-0.221 -0.575,-0.457 -1.202,-4.71 -2.019,-8.247 -2.903,-10.604 -0.834,-2.294 -2.009,-3.493 -3.353,-3.634 -1.175,-0.124 -1.805,0.489 -1.94,1.776 -0.136,1.288 0.129,1.995 2.596,11.364 0.127,0.41 -0.206,0.884 -0.709,0.831 -0.28,-0.029 -0.486,-0.221 -0.575,-0.456 -2.243,-8.271 -2.826,-10.257 -2.656,-11.88 0.23,-2.183 1.411,-3.19 3.426,-2.978 l 0.056,0.006 c 1.455,0.152 2.81,1.257 3.62,2.7 0.315,-1.381 1.137,-2.2 2.536,-2.053 2.127,0.223 3.544,2.353 5.115,7.328 0.044,0.117 0.038,0.173 0.027,0.285 C 0.427,-0.295 0.236,-0.088 0,0"
             style="fill:#ffffff;fill-opacity:1;fill-rule:nonzero;stroke:none"
             id="path2469" />
        </g>
        <g
           id="g2471"
           transform="translate(41.1771,57.7682)">
          <path
             d="m 0,0 c -0.28,-0.029 -0.542,-0.227 -0.563,-0.568 -0.185,-0.925 -0.112,-2.163 0.38,-3.073 -0.887,-1.791 -2.163,-3.113 -3.624,-3.21 -0.901,-0.038 -1.29,0.43 -1.408,1.55 -0.111,1.063 0.071,1.478 0.434,2.875 0.946,3.381 2.393,8.456 5.024,8.733 0.951,0.1 1.325,-0.766 1.466,-2.11 C 1.88,2.574 1.482,0.439 0.736,-1.62 0.763,-1.335 0.733,-1.055 0.816,-0.763 0.825,-0.309 0.448,0.047 0,0 M 7.114,0.691 C 6.996,0.735 6.94,0.729 6.828,0.718 6.548,0.688 6.342,0.497 6.254,0.261 5.938,-1.583 4.701,-3.807 2.966,-3.989 2.406,-4.048 1.823,-3.883 1.39,-3.532 2.383,-1.674 3.294,2.044 3.064,4.227 2.858,6.185 2.01,7.794 -0.005,7.582 -1.18,7.459 -2.123,6.737 -2.974,5.686 l 0.209,0.701 c 0.127,0.409 -0.262,0.878 -0.71,0.83 C -3.755,7.188 -4.017,6.991 -4.043,6.705 L -4.22,6.234 C -4.506,5.185 -5.812,-0.158 -7.135,-5.333 l -2.529,-10.395 c -0.121,-0.466 0.262,-0.878 0.765,-0.825 0.28,0.029 0.542,0.226 0.569,0.512 0.236,0.987 1.141,4.76 2.172,8.943 0.424,-0.804 1.199,-1.176 2.436,-1.102 1.853,0.138 3.341,1.596 4.502,3.472 0.557,-0.451 1.375,-0.704 2.271,-0.61 2.183,0.229 4.062,2.804 4.487,5.225 C 7.582,0.005 7.576,0.061 7.565,0.173 7.541,0.396 7.35,0.603 7.114,0.691"
             style="fill:#ffffff;fill-opacity:1;fill-rule:nonzero;stroke:none"
             id="path2473" />
        </g>
        <g
           id="g2475"
           transform="translate(49.8794,66.4918)">
          <path
             d="M 0,0 C 0.035,-0.336 -0.074,-0.913 -0.195,-1.379 -0.74,-1.04 -1.078,-0.509 -1.131,-0.006 -1.166,0.33 -1.028,0.628 -0.58,0.675 -0.356,0.698 -0.059,0.56 0,0 M 10.164,-6.797 C 10.047,-6.753 9.991,-6.759 9.879,-6.771 9.599,-6.8 9.393,-6.992 9.304,-7.227 c -1.411,-4.336 -2.399,-6.251 -3.966,-6.415 -0.727,-0.077 -1.01,0.459 -1.092,1.243 -0.003,0.566 0,1.075 0.097,1.764 0.086,0.802 1.171,5.556 1.451,6.66 0.07,0.404 -0.139,0.778 -0.492,0.911 -0.348,0.076 -0.813,0.197 -1.273,0.262 -0.987,0.236 -2.085,0.46 -3.028,0.814 0.263,1.272 0.345,1.564 0.286,2.123 -0.135,1.288 -0.951,2.051 -2.07,1.933 -1.008,-0.106 -1.877,-0.989 -1.741,-2.277 0.123,-1.175 0.883,-1.944 1.905,-2.516 l -0.292,-0.992 -1.986,-5.868 c -0.044,-0.118 -0.038,-0.174 -0.027,-0.286 0.03,-0.279 0.221,-0.486 0.457,-0.574 0.118,-0.044 0.174,-0.038 0.342,-0.021 0.223,0.024 0.436,0.159 0.518,0.451 1.986,5.867 2.163,6.339 2.234,6.742 C 1.39,-3.532 1.743,-3.665 4.232,-4.195 4.029,-4.952 3.077,-9.353 2.903,-10.39 2.761,-11.197 2.72,-11.88 2.785,-12.496 2.949,-14.063 3.851,-15.1 5.362,-14.941 l 0.056,0.006 c 2.182,0.229 3.6,2.358 5.171,7.333 0.044,0.118 0.038,0.174 0.026,0.286 0.033,0.23 -0.159,0.436 -0.451,0.519"
             style="fill:#ffffff;fill-opacity:1;fill-rule:nonzero;stroke:none"
             id="path2477" />
        </g>
        <g
           id="g2479"
           transform="translate(60.7774,60.1677)">
          <path
             d="M 0,0 C 0.749,2.569 2.243,6.121 4.481,6.356 5.209,6.433 5.898,6.335 5.986,5.496 6.239,3.089 2.598,1.122 0,0 M 9.444,0.596 C 9.096,0.673 8.722,0.464 8.584,0.167 7.228,-4.163 5.351,-6.228 2.715,-6.449 c -1.909,-0.144 -3.09,0.864 -3.172,2.723 -0.015,0.677 -0.024,1.299 0.112,2.162 3.438,1.21 8.034,3.787 7.675,7.201 C 7.171,7.148 5.963,7.87 4.34,7.699 0.534,7.299 -2.068,0.292 -1.806,-3.811 c 0.22,-2.637 1.97,-4.207 4.656,-3.925 3.246,0.341 5.43,2.721 7.018,7.528 0.044,0.118 0.038,0.174 0.027,0.286 C 9.877,0.246 9.68,0.508 9.444,0.596"
             style="fill:#ffffff;fill-opacity:1;fill-rule:nonzero;stroke:none"
             id="path2481" />
        </g>
        <g
           id="g2483"
           transform="translate(90.4329,62.2661)">
          <path
             d="m 0,0 c -0.035,0.336 -0.406,0.636 -0.742,0.601 -0.28,-0.029 -0.542,-0.227 -0.575,-0.456 -1.311,-4.213 -2.398,-6.251 -3.966,-6.416 -0.671,-0.07 -0.992,0.292 -1.092,1.244 -0.288,2.742 1.786,6.695 1.462,9.773 -0.176,1.679 -1.045,2.946 -3.34,2.705 -1.511,-0.159 -2.981,-1.785 -3.774,-3.396 -0.176,1.679 -1.319,2.861 -3.278,2.655 -1.063,-0.112 -2.05,-0.951 -2.828,-2.165 0.077,0.348 0.109,0.577 0.248,0.875 0.126,0.409 -0.262,0.878 -0.71,0.831 -0.28,-0.03 -0.542,-0.227 -0.569,-0.513 -1.14,-4.76 -2.331,-9.582 -3.472,-14.342 -0.077,-0.347 0.133,-0.721 0.48,-0.798 0.348,-0.077 0.722,0.132 0.793,0.536 l 1.535,6.386 c 0.115,0.521 1.704,4.253 2.169,5.208 0.816,1.387 1.656,2.55 2.551,2.644 1.176,0.124 1.688,-0.445 1.812,-1.62 0.117,-1.119 -0.233,-2.628 -0.699,-4.657 -0.05,-0.062 -1.462,-6.548 -1.506,-6.666 -0.127,-0.409 0.262,-0.878 0.709,-0.831 0.28,0.03 0.542,0.227 0.569,0.513 -0.05,-0.062 1.474,6.436 1.512,6.61 0.681,2.674 2.703,7.131 4.549,7.325 1.288,0.135 1.756,-0.551 1.856,-1.503 0.277,-2.63 -1.824,-6.869 -1.519,-9.779 0.165,-1.567 1.066,-2.604 2.634,-2.44 2.854,0.3 4.177,4.401 5.126,7.216 C -0.038,-0.174 0.006,-0.056 0,0"
             style="fill:#ffffff;fill-opacity:1;fill-rule:nonzero;stroke:none"
             id="path2485" />
        </g>
        <g
           id="g2487"
           transform="translate(90.6988,63.3126)">
          <path
             d="M 0,0 C 0.749,2.569 2.243,6.121 4.481,6.356 5.209,6.433 5.898,6.335 5.986,5.496 6.183,3.083 2.542,1.116 0,0 M 9.388,0.591 C 9.04,0.667 8.666,0.458 8.528,0.161 7.172,-4.169 5.295,-6.234 2.659,-6.454 c -1.909,-0.144 -3.09,0.863 -3.172,2.722 -0.015,0.677 -0.023,1.299 0.112,2.162 3.438,1.21 8.034,3.787 7.675,7.201 -0.159,1.511 -1.367,2.233 -2.99,2.062 -3.806,-0.4 -6.408,-7.407 -6.146,-11.51 0.22,-2.637 1.97,-4.207 4.656,-3.925 3.246,0.342 5.43,2.721 7.018,7.528 C 9.856,-0.096 9.85,-0.04 9.839,0.072 9.877,0.246 9.68,0.508 9.388,0.591"
             style="fill:#ffffff;fill-opacity:1;fill-rule:nonzero;stroke:none"
             id="path2489" />
        </g>
        <g
           id="g2491"
           transform="translate(105.4618,70.3532)">
          <path
             d="m 0,0 c -0.147,0.324 -0.238,0.654 -0.274,0.99 -0.047,0.448 0.006,1.019 0.357,1.452 0.3,0.371 0.63,0.462 0.677,0.015 C 0.825,1.841 0.427,0.781 0,0 M 3.952,-7.45 C 3.667,-5.273 2.709,-4.242 0.707,-1.34 1.597,-0.115 2.233,1.366 2.098,2.654 1.942,3.599 1.306,4.268 0.41,4.174 -0.877,4.039 -1.794,2.528 -1.617,0.849 c 0.076,-0.728 0.321,-1.438 0.727,-2.074 -0.35,-0.433 -0.651,-0.804 -0.94,-1.287 -0.1,-0.124 -0.138,-0.298 -0.126,-0.41 0.017,-0.168 0.097,-0.386 0.282,-0.536 0.124,-0.1 0.354,-0.133 0.522,-0.115 0.168,0.018 0.38,0.153 0.474,0.333 0.138,0.297 0.339,0.545 0.539,0.792 1.991,-2.79 2.595,-3.688 2.742,-5.087 0.226,-2.693 -1.444,-4.566 -4.075,-4.843 -1.847,-0.194 -3.617,1.035 -3.817,2.938 -0.094,1.971 0.928,3.549 2.663,3.732 0.84,0.088 1.706,-0.613 1.88,-1.727 0.041,-0.392 0.35,-0.642 0.742,-0.601 0.392,0.041 0.642,0.351 0.601,0.742 -0.239,1.73 -1.741,3.1 -3.42,2.923 -2.574,-0.271 -3.941,-2.338 -3.865,-5.216 0.27,-2.575 2.671,-4.416 5.301,-4.14 3.303,0.347 5.642,2.857 5.339,6.277"
             style="fill:#ffffff;fill-opacity:1;fill-rule:nonzero;stroke:none"
             id="path2493" />
        </g>
        <g
           id="g2495"
           transform="translate(165.8601,74.3812)">
          <path
             d="M 0,0 C -0.504,-0.053 -1.399,-0.147 -1.429,0.133 -1.452,0.357 -1.29,0.43 -1.01,0.46 -0.73,0.489 0.642,0.35 0.99,0.274 0.666,0.127 0.336,0.035 0,0 m -1.908,7.382 c 0.254,0.819 1.061,1.753 1.777,1.941 0.274,0.085 0.53,0.339 0.477,0.842 -0.091,0.33 -0.394,0.525 -0.73,0.49 C -1.392,10.549 -2.611,9.232 -3.154,7.93 -3.867,6.101 -4.341,3.618 -4.81,1.079 c -0.988,-5.14 -2.058,-11.647 -6.647,-12.129 -1.791,-0.189 -3.409,0.66 -3.62,2.675 -0.2,1.903 1.161,4.026 2.896,4.209 0.168,0.017 0.336,0.035 0.51,-0.003 0.459,-0.065 0.816,0.312 0.769,0.76 -0.03,0.279 -0.221,0.486 -0.569,0.562 -0.286,0.027 -0.621,-0.008 -0.901,-0.038 -2.407,-0.253 -4.325,-3.001 -4.037,-5.743 0.271,-2.575 2.524,-4.092 5.099,-3.822 5.373,0.565 6.561,7.028 7.772,13.267 0.481,2.427 0.911,4.792 1.63,6.565 m 8.74,-0.779 c -0.312,4.042 -3.784,6.393 -7.814,5.969 -6.94,-0.729 -10.049,-6.149 -9.313,-13.145 0.041,-0.392 0.406,-0.636 0.742,-0.601 0.336,0.035 0.704,0.301 0.657,0.748 -0.52,6.566 1.955,11.014 8.055,11.655 C 2.406,11.57 5.26,9.72 5.477,6.574 5.683,4.615 4.619,2.353 2.772,1.084 1.688,1.705 -0.088,1.915 -1.263,1.791 -2.271,1.685 -2.884,1.055 -2.778,0.048 c 0.147,-1.4 1.346,-1.5 2.745,-1.353 0.784,0.082 2.098,0.503 2.74,0.854 1.511,-0.916 2.444,-2.799 2.644,-4.702 0.353,-3.358 -1.485,-6.324 -5.011,-6.695 -2.127,-0.223 -4.286,0.399 -4.492,2.358 -0.118,1.119 0.672,2.221 1.735,2.332 0.728,0.077 1.52,-0.462 2.024,-1.485 0.141,-0.268 0.383,-0.412 0.663,-0.383 0.503,0.053 0.73,0.586 0.521,0.961 -0.718,1.452 -1.95,2.398 -3.405,2.245 -1.679,-0.177 -3.149,-1.802 -2.937,-3.817 0.276,-2.631 2.786,-3.895 5.976,-3.56 4.142,0.436 6.711,3.988 6.276,8.129 -0.183,1.735 -0.875,3.473 -2.141,4.755 L 3.93,0.3 c 1.935,1.505 3.143,4.008 2.902,6.303"
             style="fill:#ffffff;fill-opacity:1;fill-rule:nonzero;stroke:none"
             id="path2497" />
        </g>
        <g
           id="g2499"
           transform="translate(177.9468,65.7489)">
          <path
             d="m 0,0 c -0.951,-0.1 -1.331,0.822 -1.478,2.221 -0.28,3.196 1.739,10.369 4.644,10.731 1.175,0.123 2.047,-0.634 2.318,-2.133 L 4.918,8.665 C 3.972,5.284 2.631,0.276 0,0 M 11.207,7.516 C 11.089,7.56 11.033,7.554 10.921,7.542 10.641,7.513 10.435,7.321 10.346,7.086 L 10.302,6.968 C 9.486,4.505 8.339,0.876 6.324,0.665 5.653,0.594 5.332,0.957 5.232,1.908 5.085,3.307 5.854,6.217 6.632,9.581 l 1.17,4.48 C 7.929,14.471 7.596,14.945 7.093,14.892 6.813,14.863 6.551,14.665 6.518,14.436 6.391,14.026 6.276,13.505 6.111,12.922 5.428,14.038 4.368,14.436 3.025,14.295 -0.837,13.889 -3.239,6.054 -2.798,1.856 c 0.2,-1.903 1.204,-3.382 2.995,-3.193 1.399,0.147 2.649,1.183 3.748,3.11 0.164,-1.567 1.065,-2.604 2.577,-2.446 2.854,0.3 4.177,4.401 5.126,7.216 l 0.044,0.118 c 0.045,0.118 0.039,0.174 0.027,0.286 -0.085,0.274 -0.277,0.48 -0.512,0.569"
             style="fill:#ffffff;fill-opacity:1;fill-rule:nonzero;stroke:none"
             id="path2501" />
        </g>
        <g
           id="g2503"
           transform="translate(190.7341,81.2962)">
          <path
             d="M 0,0 C 0.035,-0.336 -0.074,-0.913 -0.195,-1.379 -0.74,-1.04 -1.078,-0.509 -1.131,-0.006 -1.166,0.33 -1.028,0.628 -0.58,0.675 -0.356,0.698 -0.059,0.56 0,0 M 10.164,-6.797 C 10.047,-6.753 9.991,-6.759 9.879,-6.771 9.599,-6.8 9.393,-6.992 9.304,-7.227 c -1.411,-4.336 -2.399,-6.251 -3.966,-6.415 -0.727,-0.077 -1.01,0.459 -1.092,1.243 -0.003,0.566 0,1.075 0.097,1.764 0.086,0.802 1.171,5.556 1.451,6.66 0.07,0.404 -0.139,0.778 -0.492,0.911 -0.348,0.076 -0.813,0.197 -1.273,0.262 -0.987,0.236 -2.085,0.46 -3.028,0.814 0.263,1.272 0.345,1.564 0.286,2.123 -0.135,1.288 -0.951,2.051 -2.07,1.933 -1.008,-0.106 -1.877,-0.989 -1.741,-2.277 0.123,-1.175 0.883,-1.944 1.905,-2.516 l -0.292,-0.992 -1.986,-5.868 c -0.044,-0.118 -0.038,-0.174 -0.027,-0.285 0.03,-0.28 0.221,-0.487 0.457,-0.575 0.118,-0.044 0.174,-0.038 0.342,-0.021 0.223,0.024 0.436,0.159 0.518,0.451 1.986,5.867 2.163,6.339 2.234,6.742 C 1.39,-3.532 1.743,-3.665 4.232,-4.195 4.029,-4.952 3.077,-9.353 2.903,-10.39 2.761,-11.197 2.72,-11.88 2.785,-12.496 2.949,-14.063 3.851,-15.1 5.362,-14.941 l 0.056,0.006 c 2.182,0.229 3.6,2.358 5.171,7.333 0.044,0.118 0.038,0.174 0.026,0.286 0.032,0.23 -0.159,0.436 -0.451,0.519"
             style="fill:#ffffff;fill-opacity:1;fill-rule:nonzero;stroke:none"
             id="path2505" />
        </g>
        <g
           id="g2507"
           transform="translate(221.1591,76.006)">
          <path
             d="m 0,0 c -0.035,0.336 -0.406,0.636 -0.742,0.601 -0.28,-0.029 -0.542,-0.227 -0.575,-0.456 -1.311,-4.213 -2.398,-6.251 -3.966,-6.416 -0.671,-0.07 -0.992,0.292 -1.092,1.244 -0.288,2.742 1.786,6.695 1.462,9.773 -0.176,1.679 -1.045,2.946 -3.34,2.705 -1.511,-0.159 -2.981,-1.785 -3.774,-3.396 -0.176,1.679 -1.319,2.861 -3.278,2.655 -1.063,-0.112 -2.05,-0.951 -2.828,-2.165 0.077,0.348 0.109,0.577 0.248,0.875 0.126,0.409 -0.262,0.878 -0.71,0.831 -0.28,-0.03 -0.542,-0.227 -0.569,-0.513 -1.14,-4.76 -2.331,-9.582 -3.472,-14.342 -0.077,-0.347 0.133,-0.721 0.48,-0.798 0.348,-0.077 0.722,0.132 0.793,0.536 l 1.535,6.386 c 0.115,0.521 1.704,4.253 2.169,5.208 0.816,1.387 1.656,2.55 2.551,2.644 1.176,0.124 1.688,-0.445 1.812,-1.62 0.117,-1.119 -0.233,-2.628 -0.699,-4.657 -0.05,-0.062 -1.462,-6.548 -1.506,-6.666 -0.127,-0.409 0.262,-0.878 0.709,-0.831 0.28,0.03 0.542,0.227 0.569,0.513 -0.05,-0.062 1.474,6.436 1.512,6.61 0.681,2.674 2.703,7.131 4.549,7.325 1.288,0.135 1.756,-0.551 1.856,-1.503 0.277,-2.63 -1.824,-6.869 -1.519,-9.779 0.165,-1.567 1.066,-2.604 2.634,-2.44 2.854,0.3 4.177,4.401 5.126,7.216 C -0.038,-0.174 0.006,-0.056 0,0"
             style="fill:#ffffff;fill-opacity:1;fill-rule:nonzero;stroke:none"
             id="path2509" />
        </g>
        <g
           id="g2511"
           transform="translate(222.4049,70.4216)">
          <path
             d="m 0,0 c -0.951,-0.1 -1.331,0.822 -1.478,2.221 -0.28,3.196 1.739,10.369 4.644,10.731 1.175,0.123 2.047,-0.634 2.318,-2.133 L 4.918,8.665 C 3.972,5.284 2.575,0.271 0,0 M 11.151,7.51 C 11.033,7.554 10.977,7.548 10.865,7.536 10.585,7.507 10.379,7.315 10.29,7.08 L 10.246,6.962 C 9.43,4.5 8.283,0.871 6.268,0.659 5.597,0.588 5.276,0.951 5.176,1.902 c -0.147,1.399 0.622,4.31 1.4,7.673 l 1.17,4.481 C 7.873,14.465 7.54,14.939 7.037,14.886 6.757,14.857 6.495,14.66 6.462,14.43 6.335,14.02 6.22,13.499 6.055,12.916 5.372,14.032 4.312,14.43 2.969,14.289 -0.893,13.883 -3.295,6.048 -2.854,1.85 c 0.2,-1.903 1.204,-3.381 2.995,-3.193 1.399,0.147 2.649,1.183 3.748,3.11 0.164,-1.567 1.065,-2.604 2.577,-2.446 2.854,0.3 4.177,4.401 5.126,7.217 l 0.044,0.117 c 0.045,0.118 0.039,0.174 0.027,0.286 -0.029,0.28 -0.221,0.486 -0.512,0.569"
             style="fill:#ffffff;fill-opacity:1;fill-rule:nonzero;stroke:none"
             id="path2513" />
        </g>
        <g
           id="g2515"
           transform="translate(239.4799,78.554)">
          <path
             d="m 0,0 c -0.118,0.044 -0.174,0.038 -0.286,0.027 -0.28,-0.03 -0.486,-0.221 -0.574,-0.457 -0.899,-2.754 -2.007,-6.209 -4.022,-6.421 -0.672,-0.07 -0.993,0.292 -1.093,1.243 -0.147,1.4 0.26,2.914 2.477,11.974 0.109,0.577 -0.313,0.816 -0.704,0.775 C -4.482,7.112 -4.688,6.92 -4.771,6.629 -5.788,2.843 -7.465,-3.274 -7.318,-5.749 c 0.097,-1.461 1.066,-2.604 2.577,-2.445 2.687,0.282 4.024,3.705 5.171,7.334 0.044,0.118 0.038,0.174 0.026,0.286 C 0.427,-0.295 0.236,-0.088 0,0 m -3.092,8.955 c 0.616,0.065 1.011,0.616 0.952,1.176 -0.065,0.615 -0.615,1.01 -1.175,0.951 -0.616,-0.065 -1.067,-0.621 -1.008,-1.181 0.065,-0.616 0.616,-1.01 1.231,-0.946"
             style="fill:#ffffff;fill-opacity:1;fill-rule:nonzero;stroke:none"
             id="path2517" />
        </g>
        <g
           id="g2519"
           transform="translate(241.1978,72.3968)">
          <path
             d="M 0,0 C -0.951,-0.1 -1.331,0.822 -1.478,2.221 -1.758,5.417 0.267,12.534 3.166,12.952 4.397,13.081 5.213,12.318 5.484,10.819 5.489,10.763 5.495,10.707 5.451,10.589 5.28,10.062 5.127,9.366 4.918,8.665 3.972,5.284 2.575,0.271 0,0 M 12.046,7.604 C 11.928,7.648 11.872,7.642 11.76,7.63 11.48,7.601 11.274,7.41 11.186,7.174 10.022,3.713 8.787,0.924 6.492,0.682 5.765,0.606 5.426,1.136 5.344,1.92 5.256,2.759 5.615,4.721 5.966,6.229 6.152,7.154 8.816,18.412 9.052,19.399 9.129,19.746 8.846,20.283 8.342,20.23 8.063,20.2 7.856,20.009 7.768,19.773 L 6.606,14.671 6.167,12.928 C 5.558,13.882 4.542,14.398 3.142,14.251 -0.72,13.845 -3.121,6.01 -2.68,1.812 c 0.2,-1.903 1.204,-3.382 2.995,-3.194 1.623,0.171 2.837,1.544 3.792,3.228 0.188,-1.791 1.133,-2.71 2.644,-2.551 2.967,0.312 4.469,3.242 5.899,7.41 0.044,0.118 0.038,0.174 0.026,0.286 -0.203,0.318 -0.394,0.524 -0.63,0.613"
             style="fill:#ffffff;fill-opacity:1;fill-rule:nonzero;stroke:none"
             id="path2521" />
        </g>
        <g
           id="g2523"
           transform="translate(258.5891,86.4475)">
          <path
             d="m 0,0 c -0.147,0.324 -0.238,0.654 -0.274,0.99 -0.047,0.448 0.006,1.019 0.357,1.452 0.3,0.371 0.63,0.462 0.677,0.015 C 0.825,1.841 0.427,0.781 0,0 M 3.952,-7.45 C 3.667,-5.273 2.709,-4.242 0.707,-1.34 1.597,-0.115 2.233,1.366 2.098,2.654 1.942,3.599 1.306,4.268 0.41,4.174 -0.877,4.039 -1.794,2.528 -1.617,0.849 c 0.076,-0.728 0.321,-1.438 0.727,-2.074 -0.35,-0.433 -0.651,-0.804 -0.94,-1.287 -0.1,-0.124 -0.138,-0.298 -0.126,-0.41 0.017,-0.168 0.097,-0.386 0.282,-0.536 0.124,-0.1 0.354,-0.133 0.522,-0.115 0.168,0.018 0.38,0.153 0.474,0.333 0.139,0.297 0.339,0.545 0.539,0.792 1.991,-2.79 2.595,-3.688 2.742,-5.087 0.226,-2.693 -1.444,-4.566 -4.075,-4.843 -1.847,-0.194 -3.617,1.035 -3.817,2.938 -0.094,1.971 0.928,3.549 2.664,3.732 0.839,0.088 1.705,-0.613 1.879,-1.727 0.041,-0.392 0.35,-0.642 0.742,-0.601 0.392,0.041 0.642,0.351 0.601,0.742 -0.239,1.73 -1.741,3.1 -3.42,2.923 -2.574,-0.271 -3.941,-2.338 -3.865,-5.216 0.27,-2.575 2.671,-4.416 5.301,-4.14 3.303,0.347 5.642,2.857 5.339,6.277"
             style="fill:#ffffff;fill-opacity:1;fill-rule:nonzero;stroke:none"
             id="path2525" />
        </g>
        <g
           id="g2527"
           transform="translate(117.6278,19.9894)">
          <path
             d="M 0,0 0.819,-0.253 C 1.11,-0.336 1.334,-0.312 1.546,-0.177 1.759,-0.042 1.903,0.2 2.041,0.497 2.307,1.204 2.148,1.64 1.559,1.861 L 0.684,2.109 Z m 0.259,-1.387 -0.701,0.209 -0.861,-2.58 -1.408,0.474 2.429,7.046 2.288,-0.778 C 2.713,2.718 3.202,2.374 3.485,1.838 3.762,1.357 3.771,0.736 3.555,0.091 3.202,-0.852 2.639,-1.42 1.861,-1.559 L 2.097,-4.872 1.985,-4.884 0.459,-4.366 Z"
             style="fill:#ffffff;fill-opacity:1;fill-rule:nonzero;stroke:none"
             id="path2529" />
        </g>
        <g
           id="g2531"
           transform="translate(126.3028,17.0836)">
          <path
             d="m 0,0 -2.303,0.38 -0.36,-1.961 2.769,-0.502 -0.213,-1.21 -4.271,0.796 1.324,7.325 L 1.155,4.083 0.943,2.872 -1.77,3.379 -2.097,1.647 0.206,1.267 Z"
             style="fill:#ffffff;fill-opacity:1;fill-rule:nonzero;stroke:none"
             id="path2533" />
        </g>
        <g
           id="g2535"
           transform="translate(133.6833,15.9562)">
          <path
             d="m 0,0 c -0.08,-0.857 -0.295,-1.502 -0.763,-1.891 -0.463,-0.445 -1.067,-0.621 -1.856,-0.648 -0.851,0.024 -1.502,0.295 -1.903,0.875 -0.456,0.575 -0.651,1.347 -0.65,2.422 l 0.038,1.249 c 0.006,1.019 0.26,1.838 0.772,2.344 0.451,0.557 1.105,0.796 1.956,0.772 C -1.61,5.093 -0.965,4.878 -0.577,4.41 -0.188,3.941 0.051,3.287 0.139,2.448 L -1.39,2.457 C -1.387,2.967 -1.484,3.352 -1.62,3.565 -1.755,3.777 -2.047,3.859 -2.444,3.874 -2.842,3.889 -3.11,3.747 -3.305,3.444 -3.443,3.147 -3.564,2.681 -3.611,2.054 L -3.694,0.687 c -0.035,-0.739 0.074,-1.237 0.221,-1.561 0.141,-0.268 0.439,-0.407 0.836,-0.422 0.398,-0.014 0.672,0.071 0.822,0.256 0.151,0.186 0.227,0.534 0.286,1.049 z"
             style="fill:#ffffff;fill-opacity:1;fill-rule:nonzero;stroke:none"
             id="path2537" />
        </g>
        <g
           id="g2539"
           transform="translate(137.5707,13.8811)">
          <path
             d="m 0,0 -1.511,-0.159 -0.783,7.444 1.512,0.159 z"
             style="fill:#ffffff;fill-opacity:1;fill-rule:nonzero;stroke:none"
             id="path2541" />
        </g>
        <g
           id="g2543"
           transform="translate(140.864,18.3595)">
          <path
             d="M 0,0 0.996,0.218 C 1.27,0.303 1.482,0.439 1.576,0.618 1.664,0.854 1.691,1.14 1.6,1.47 1.503,1.856 1.361,2.124 1.176,2.274 0.984,2.48 0.754,2.513 0.475,2.483 L -0.577,2.259 Z M 0.297,-1.214 0.904,-3.753 -0.534,-4.074 -2.262,3.214 0.222,3.815 C 0.937,4.003 1.571,3.9 2.116,3.561 2.66,3.222 2.999,2.692 3.188,1.976 3.376,1.26 3.273,0.627 2.928,0.138 2.583,-0.351 2.059,-0.746 1.337,-0.878 Z"
             style="fill:#ffffff;fill-opacity:1;fill-rule:nonzero;stroke:none"
             id="path2545" />
        </g>
        <g
           id="g2547"
           transform="translate(149.9165,20.6666)">
          <path
             d="m 0,0 -2.168,-0.907 0.76,-1.844 2.548,1.06 0.459,-1.14 -3.962,-1.605 -2.818,6.891 3.962,1.604 0.459,-1.14 -2.548,-1.06 0.68,-1.626 2.169,0.907 z"
             style="fill:#ffffff;fill-opacity:1;fill-rule:nonzero;stroke:none"
             id="path2549" />
        </g>
        <g
           id="g2551"
           transform="translate(155.3775,22.2167)">
          <path
             d="M 0,0 C -0.141,0.268 -0.327,0.418 -0.557,0.451 -0.786,0.483 -1.072,0.51 -1.514,0.407 -2.292,0.268 -2.919,0.316 -3.44,0.431 c -0.472,0.176 -0.843,0.477 -1.114,0.901 -0.338,0.53 -0.397,1.09 -0.226,1.617 0.165,0.584 0.571,1.022 1.158,1.367 0.374,0.209 0.81,0.368 1.201,0.409 C -2.029,4.766 -1.619,4.64 -1.26,4.451 -0.901,4.263 -0.642,3.95 -0.376,3.582 L -1.655,2.825 C -1.858,3.143 -2.044,3.294 -2.279,3.382 -2.515,3.47 -2.739,3.447 -2.945,3.255 -3.157,3.12 -3.308,2.934 -3.346,2.761 -3.384,2.587 -3.361,2.363 -3.225,2.151 -3.096,1.995 -2.966,1.839 -2.736,1.806 -2.501,1.718 -2.165,1.753 -1.717,1.8 -0.939,1.938 -0.374,1.941 0.153,1.77 0.625,1.594 0.996,1.293 1.335,0.763 1.673,0.232 1.732,-0.327 1.561,-0.854 1.39,-1.382 0.984,-1.821 0.397,-2.165 c -0.424,-0.271 -0.86,-0.43 -1.314,-0.421 -0.447,-0.047 -0.851,0.024 -1.216,0.268 -0.359,0.189 -0.675,0.495 -0.951,0.975 l 1.278,0.757 c 0.209,-0.374 0.457,-0.574 0.692,-0.663 0.236,-0.088 0.51,-0.003 0.828,0.2 C 0.2,-0.828 0.277,-0.48 0,0"
             style="fill:#ffffff;fill-opacity:1;fill-rule:nonzero;stroke:none"
             id="path2553" />
        </g>
        <g
           id="g2555"
           transform="translate(104.2914,106.165)">
          <path
             d="m 0,0 c 0.524,-0.681 0.763,-1.335 0.715,-1.962 -0.047,-0.627 -0.386,-1.172 -0.954,-1.685 -0.619,-0.574 -1.335,-0.762 -2.024,-0.665 -0.689,0.097 -1.364,0.592 -2.068,1.367 l -0.833,0.931 c -0.704,0.775 -1.01,1.535 -1.031,2.268 -0.02,0.734 0.313,1.335 0.931,1.909 0.625,0.518 1.223,0.751 1.85,0.704 0.628,-0.048 1.229,-0.381 1.803,-0.999 L -2.754,0.899 C -3.137,1.311 -3.384,1.512 -3.67,1.538 -3.9,1.571 -4.174,1.485 -4.486,1.226 -4.798,0.967 -4.937,0.669 -4.846,0.34 -4.81,0.004 -4.539,-0.421 -4.151,-0.889 l 0.902,-1.037 c 0.512,-0.569 0.889,-0.925 1.181,-1.008 0.291,-0.082 0.621,0.009 0.933,0.268 0.313,0.26 0.457,0.501 0.434,0.725 -0.024,0.224 -0.171,0.548 -0.498,0.966 z"
             style="fill:#ffffff;fill-opacity:1;fill-rule:nonzero;stroke:none"
             id="path2557" />
        </g>
        <g
           id="g2559"
           transform="translate(108.0721,110.758)">
          <path
             d="M 0,0 C -0.345,0.586 -0.722,0.943 -1.025,1.137 -1.384,1.326 -1.72,1.29 -2.038,1.087 -2.356,0.884 -2.551,0.581 -2.516,0.245 -2.53,-0.153 -2.371,-0.589 -2.033,-1.119 l 0.684,-1.117 c 0.338,-0.53 0.659,-0.892 0.963,-1.087 0.353,-0.132 0.695,-0.153 1.013,0.05 0.318,0.203 0.513,0.507 0.533,0.849 0.021,0.341 -0.144,0.833 -0.483,1.363 z M 1.956,-0.304 C 2.498,-1.152 2.636,-1.93 2.545,-2.675 2.447,-3.364 2.002,-3.977 1.31,-4.389 0.618,-4.802 -0.104,-4.934 -0.805,-4.725 c -0.701,0.21 -1.325,0.766 -1.811,1.621 l -0.678,1.06 c -0.547,0.905 -0.742,1.676 -0.65,2.422 0.091,0.745 0.536,1.358 1.228,1.77 0.693,0.412 1.414,0.545 2.121,0.279 0.707,-0.265 1.326,-0.766 1.874,-1.67 z"
             style="fill:#ffffff;fill-opacity:1;fill-rule:nonzero;stroke:none"
             id="path2561" />
        </g>
        <g
           id="g2563"
           transform="translate(116.8036,112.7008)">
          <path
             d="m 0,0 c 0.256,-0.822 0.271,-1.499 0.044,-2.033 -0.221,-0.589 -0.746,-0.983 -1.506,-1.289 -0.816,-0.313 -1.499,-0.271 -2.1,0.062 -0.601,0.333 -1.125,1.013 -1.511,1.991 l -0.453,1.084 c -0.386,0.978 -0.468,1.762 -0.203,2.469 0.209,0.701 0.728,1.151 1.482,1.514 0.76,0.306 1.437,0.32 1.976,0.038 0.54,-0.283 1.046,-0.796 1.408,-1.55 L -2.277,1.741 C -2.498,2.227 -2.701,2.545 -2.936,2.634 -3.122,2.784 -3.402,2.755 -3.782,2.602 -4.162,2.449 -4.362,2.201 -4.389,1.915 -4.465,1.568 -4.362,1.126 -4.13,0.528 l 0.533,-1.302 c 0.301,-0.704 0.572,-1.128 0.819,-1.329 0.247,-0.2 0.589,-0.221 0.969,-0.068 0.38,0.153 0.586,0.345 0.675,0.581 0.088,0.235 -0.003,0.565 -0.168,1.057 z"
             style="fill:#ffffff;fill-opacity:1;fill-rule:nonzero;stroke:none"
             id="path2565" />
        </g>
        <g
           id="g2567"
           transform="translate(120.5607,114.0343)">
          <path
             d="M 0,0 -0.415,-0.892 0.032,-2.996 -1.462,-3.322 -3.022,3.983 -1.528,4.31 -0.851,1.099 -0.548,1.98 0.301,4.672 2.125,5.09 0.698,1.431 3.741,-2.21 1.967,-2.566 Z"
             style="fill:#ffffff;fill-opacity:1;fill-rule:nonzero;stroke:none"
             id="path2569" />
        </g>
        <g
           id="g2571"
           transform="translate(129.8411,118.4356)">
          <path
             d="m 0,0 -1.803,-0.076 0.311,-6.192 -1.517,-0.103 -0.311,6.192 -1.859,-0.082 -0.073,1.237 5.179,0.261 z"
             style="fill:#ffffff;fill-opacity:1;fill-rule:nonzero;stroke:none"
             id="path2573" />
        </g>
        <g
           id="g2575"
           transform="translate(133.7239,114.8013)">
          <path
             d="M 0,0 1.373,-0.139 0.972,2.592 Z m 1.57,-1.476 -2.062,0.236 -0.581,-1.476 -1.546,0.177 3.15,7.178 1.373,-0.138 1.489,-7.709 -1.603,0.171 z"
             style="fill:#ffffff;fill-opacity:1;fill-rule:nonzero;stroke:none"
             id="path2577" />
        </g>
        <g
           id="g2579"
           transform="translate(139.9277,110.8377)">
          <path
             d="M 0,0 -1.452,0.357 0.331,7.617 1.783,7.261 Z"
             style="fill:#ffffff;fill-opacity:1;fill-rule:nonzero;stroke:none"
             id="path2581" />
        </g>
        <g
           id="g2583"
           transform="translate(143.66,110.9721)">
          <path
             d="M 0,0 2.474,-0.928 2.032,-2.106 -1.856,-0.648 0.746,6.36 2.16,5.829 Z"
             style="fill:#ffffff;fill-opacity:1;fill-rule:nonzero;stroke:none"
             id="path2585" />
        </g>
        <g
           id="g2587"
           transform="translate(150.6942,108.4593)">
          <path
             d="M 0,0 C 0.144,0.242 0.171,0.527 0.153,0.695 0.074,0.913 -0.068,1.181 -0.333,1.549 -0.851,2.174 -1.134,2.71 -1.243,3.208 -1.351,3.706 -1.287,4.165 -0.998,4.648 -0.715,5.187 -0.241,5.52 0.313,5.635 0.867,5.75 1.5,5.647 2.101,5.314 2.522,5.075 2.832,4.825 3.041,4.45 3.25,4.076 3.341,3.746 3.382,3.355 3.367,2.957 3.297,2.553 3.052,2.188 L 1.733,2.898 C 1.927,3.202 1.954,3.487 1.93,3.711 1.906,3.935 1.771,4.147 1.474,4.286 1.232,4.43 1.002,4.463 0.84,4.389 0.622,4.309 0.466,4.18 0.322,3.938 0.227,3.759 0.189,3.585 0.274,3.311 0.354,3.093 0.495,2.825 0.816,2.462 1.329,1.894 1.611,1.358 1.72,0.86 1.829,0.362 1.714,-0.159 1.426,-0.642 1.087,-1.187 0.674,-1.57 0.176,-1.679 c -0.553,-0.115 -1.131,-0.006 -1.732,0.327 -0.421,0.239 -0.736,0.545 -1.001,0.913 -0.265,0.369 -0.362,0.755 -0.409,1.202 0.009,0.454 0.079,0.858 0.312,1.335 l 1.32,-0.71 c -0.189,-0.36 -0.265,-0.707 -0.242,-0.931 0.03,-0.28 0.221,-0.486 0.58,-0.675 C -0.619,-0.574 -0.289,-0.483 0,0"
             style="fill:#ffffff;fill-opacity:1;fill-rule:nonzero;stroke:none"
             id="path2589" />
        </g>
        <g
           id="g2591"
           transform="translate(126.5747,39.8476)">
          <path
             d="M 0,0 C -0.012,0.112 -0.024,0.224 0.021,0.342 0.065,0.46 0.109,0.577 0.159,0.639 0.309,0.825 0.46,1.01 0.728,1.152 0.448,1.122 0.18,0.981 -0.026,0.789 -0.127,0.666 -0.227,0.542 -0.271,0.424 -0.315,0.306 -0.353,0.133 -0.336,-0.035 -0.3,-0.371 -0.215,-0.645 -0.074,-0.913 0.068,-1.181 0.315,-1.382 0.557,-1.526 1.045,-1.871 1.573,-2.042 2.094,-2.157 2.615,-2.272 3.181,-2.269 3.735,-2.154 2.804,-1.912 1.705,-1.688 0.907,-1.093 0.424,-0.804 0.103,-0.442 0,0"
             style="fill:#ffffff;fill-opacity:1;fill-rule:nonzero;stroke:none"
             id="path2593" />
        </g>
        <g
           id="g2595"
           transform="translate(129.6619,40.6248)">
          <path
             d="M 0,0 C -0.097,0.386 0.595,0.798 0.969,1.007 -2.253,0.442 0.303,-2.345 4.578,-0.481 4.902,-0.334 5.17,-0.192 5.37,0.055 4.828,-0.172 4.162,-0.298 3.552,-0.419 2.713,-0.507 0.574,-0.619 0,0"
             style="fill:#ffffff;fill-opacity:1;fill-rule:nonzero;stroke:none"
             id="path2597" />
        </g>
        <g
           id="g2599"
           transform="translate(133.6509,81.2775)">
          <path
             d="m 0,0 c 0.077,0.348 -0.026,0.789 -0.235,1.164 -0.277,0.48 -0.76,0.769 -1.258,0.66 C -2.489,1.606 -2.247,0.386 -1.685,-0.12 -1.499,-0.271 -1.308,-0.477 -1.072,-0.565 -0.607,-0.686 -0.121,-0.465 0,0 m -0.946,-0.156 c -0.471,0.177 -1.057,0.907 -0.83,1.441 0.044,0.117 0.15,0.185 0.318,0.203 -0.306,-0.315 -0.141,-0.807 0.18,-1.17 -0.318,1.947 0.916,0.436 0.951,0.1 0.053,-0.503 -0.203,-0.757 -0.619,-0.574"
             style="fill:#ffffff;fill-opacity:1;fill-rule:nonzero;stroke:none"
             id="path2601" />
        </g>
        <g
           id="g2603"
           transform="translate(146.0763,103.5772)">
          <path
             d="m 0,0 c -0.38,-0.153 -0.737,-0.53 -0.751,-0.928 -0.077,-0.347 0.07,-0.671 0.206,-0.883 l -3.489,-5.573 c -1.423,0.077 -2.839,0.097 -5.09,-0.026 -9.529,-0.322 -32.709,-3.211 -29.626,-6.169 0.248,-0.201 11.21,-10.819 16.541,-17.388 3.684,-4.366 4.729,-9.463 5.282,-14.724 0.418,-3.973 1.382,-12.077 0.009,-15.164 -4.94,-0.915 -9.712,-2.888 -8.443,-5.81 l 0.068,-0.107 c 3.348,-4.401 20.805,-2.51 23.919,1.779 0.15,0.185 0.645,0.86 0.442,2.253 -0.315,2.457 -8.536,2.611 -9.997,2.514 -0.598,0.843 -0.995,1.933 -1.275,2.979 -0.901,3.187 -1.442,8.336 -1.813,11.862 -1.082,10.298 0.727,13.544 6.143,22.319 2.805,4.538 5.727,9.033 8.718,13.422 l 0.044,0.118 c 0.395,0.55 0.31,0.824 -0.067,1.181 -0.749,0.657 -3.09,0.863 -4.171,0.919 l 3.356,5.22 c 0.235,-0.089 0.577,-0.109 0.845,0.032 0.38,0.153 0.625,0.518 0.695,0.922 C 1.626,-0.395 0.822,0.256 0,0 m -38.293,-13.079 -0.062,0.05 c 0.351,1.509 15.074,4.64 29.184,4.992 1.579,0.052 3.108,0.043 4.698,-0.016 l -1.066,-1.696 c -1.32,0.71 -2.646,0.401 -3.851,-0.518 -0.285,0.026 -0.509,0.003 -0.795,0.029 -4.922,-0.008 -10.743,-0.619 -15.577,-1.467 -2.277,-0.409 -5.37,-1.13 -7.544,-1.981 2.248,0.689 5.246,1.23 7.579,1.645 5.568,0.868 10.729,1.298 15.521,1.462 0.112,0.012 0.28,0.029 0.398,-0.015 -0.412,-0.383 -0.757,-0.872 -1.046,-1.355 -5.287,-0.839 -12.339,-1.58 -18.033,-1.782 -9.356,-0.361 -9.306,0.776 -9.406,0.652 m 35.36,1.68 c 0.006,-0.056 -0.194,-0.304 -1.005,-1.747 -0.055,-0.006 -0.106,-0.068 -0.162,-0.074 -0.011,0.112 0.039,0.174 0.027,0.286 0.032,0.23 0.065,0.46 0.036,0.74 -0.006,0.056 -0.006,0.056 -0.012,0.111 0.162,0.074 0.324,0.148 0.542,0.227 -3.685,-1.01 -9.427,-1.839 -13.171,-2.289 -4.415,-0.521 -4.713,-0.383 -8.345,-0.821 1.82,-0.092 3.623,-0.015 5.476,0.123 1.349,0.085 2.748,0.232 4.098,0.317 1.343,0.142 2.568,0.327 3.906,0.524 -0.071,-0.403 -0.092,-0.745 -0.051,-1.137 -1.113,-0.174 -2.227,-0.347 -3.396,-0.527 -1.561,-0.22 -3.072,-0.379 -4.64,-0.544 -3.302,-0.347 -7.635,-0.576 -10.996,-0.363 -0.377,0.356 -0.698,0.718 -1.075,1.075 0.265,-0.368 0.524,-0.681 0.789,-1.049 -0.173,0.038 -0.341,0.021 -0.969,0.068 -0.518,0.625 -0.98,1.255 -1.443,1.885 1.479,-0.07 3.008,-0.08 4.475,-0.039 10.442,0.249 20.956,1.977 26.061,3.475 -0.101,-0.123 -0.151,-0.185 -0.145,-0.241 m -8.042,-4.241 c 0.498,0.109 0.554,0.115 1.107,0.23 -0.114,-0.522 0.41,-1.202 1.305,-1.108 1.064,0.112 1.871,1.045 1.011,1.691 0.604,0.176 1.152,0.347 1.75,0.58 0.218,0.079 0.498,0.109 0.716,0.188 -2.013,-4.003 -5.235,-3.493 -5.889,-1.581 m 1.213,-6.154 c -3.259,-3.454 -6.952,-0.617 -4.81,3.23 0.616,1.14 1.558,1.861 2.507,2.527 0.218,0.079 0.386,0.097 0.66,0.182 0.471,-1.252 1.764,-2.248 3.128,-1.765 0.259,-1.387 0.091,-2.48 -1.485,-4.174 m 0.843,5.974 c -0.13,0.156 -0.041,0.392 0.412,0.383 0.286,-0.027 0.578,-0.109 0.869,-0.192 -0.194,-0.303 -0.736,-0.53 -1.14,-0.459 -0.229,0.033 -0.521,0.115 -0.724,0.433 -0.068,0.106 -0.086,0.274 0.121,0.466 0.167,0.017 0.329,0.091 0.497,0.109 -0.312,-0.26 -0.209,-0.701 -0.035,-0.74 m 0.539,0.792 c 0.112,0.012 0.218,0.08 0.386,0.098 0.118,-0.045 0.174,-0.039 0.298,-0.139 -0.236,0.089 -0.46,0.065 -0.684,0.041 m 2.537,1.172 c -1.644,-0.512 -3.468,-0.93 -5.191,-1.224 -0.041,0.392 -0.02,0.733 0.05,1.137 1.5,0.271 2.501,0.433 4.917,1.139 0.766,0.25 1.04,0.336 1.588,0.507 0.047,-0.448 -0.142,-0.808 -0.325,-1.223 -0.385,-0.097 -0.715,-0.188 -1.039,-0.336 m -4.389,1.916 c 0.383,0.663 3.697,3.048 5.214,1.001 -1.718,-0.351 -3.491,-0.707 -5.214,-1.001 m -23.089,-4.294 c -1.273,0.262 -2.395,0.71 -1.414,1.605 0.327,-0.418 0.834,-0.931 1.414,-1.605 m 31.588,-48.571 c -3.987,-4.606 -22.221,-5.56 -23.439,-1.501 3.817,-4.013 19.52,-2.136 23.347,1.831 0.1,0.124 0.257,0.254 0.351,0.433 -0.038,-0.173 -0.109,-0.577 -0.259,-0.763 m -0.419,0.749 c -2.206,-2.156 -7.644,-3.18 -10.834,-3.516 -12.929,-1.359 -17.014,3.588 -4.226,6.29 -0.666,-1.202 -1.65,-1.532 -1.512,-2.309 0.024,-0.224 0.159,-0.436 0.289,-0.592 0.259,-0.313 0.612,-0.445 0.91,-0.584 3.193,-1.305 9.785,0.576 8.666,2.609 -0.141,0.268 -0.388,0.468 -0.63,0.613 -0.247,0.2 -0.303,0.194 -0.427,0.294 -0.427,0.295 -0.613,0.445 -0.866,0.701 4.799,0.109 11.412,-0.894 8.63,-3.506 m -12.536,18.601 c 0.37,-3.526 0.973,-8.726 1.874,-11.913 0.751,-2.298 1.19,-3.779 2.851,-4.51 0.124,-0.1 0.365,-0.245 0.551,-0.395 0.191,-0.206 0.203,-0.318 0.058,-0.56 -0.677,-1.09 -2.781,-1.537 -4.068,-1.672 l -0.224,-0.024 c -1.343,-0.141 -3.437,-0.135 -4.327,0.79 -0.191,0.207 -0.203,0.319 -0.059,0.56 0.628,1.028 2.713,0.568 2.388,9.588 -0.587,15.273 -3.116,19.421 -5.208,22.087 2.807,-2.477 5.02,-2.528 7.594,-0.107 -2.607,-5.876 -1.466,-13.509 -1.43,-13.844 m 2.088,15.667 c -0.251,-0.309 -0.445,-0.612 -0.696,-0.922 -5.026,-6.017 -9.216,2.087 -23.804,16.512 0.751,-0.148 1.496,-0.239 2.236,-0.275 -0.681,-0.524 -0.678,-1.089 0.108,-1.573 0.545,-0.338 1.24,-0.492 1.88,-0.651 13.456,-15.505 16.024,-19.479 20.612,-10.905 -4.11,-5.581 -5.183,-7.222 -19.228,10.655 0.342,-0.021 0.689,-0.098 1.031,-0.118 2.097,-2.723 5.572,-6.714 8.143,-9.104 -1.189,1.629 -2.423,3.141 -3.325,4.178 -1.549,1.817 -2.641,3.061 -4.42,4.911 3.423,-0.263 7.084,-0.104 10.504,0.198 2.183,0.23 4.36,0.515 6.469,0.907 -2.36,-1.776 -4.054,-5.576 -1.1,-7.302 0.056,0.005 0.062,-0.051 0.118,-0.045 -3.227,-5.375 -2.849,-4.656 -2.92,-5.06 l 3.273,4.928 c 1.544,-0.687 2.946,-0.03 4.171,1.23 1.17,1.255 2.331,3.131 1.639,4.869 0.822,0.256 1.564,0.731 2.177,1.361 0.1,0.124 0.256,0.253 0.407,0.439 l -5.884,-10.239 9.678,15.051 c 0.218,0.08 0.381,0.153 0.816,0.312 -2.79,-4.141 -8.847,-13.265 -11.885,-19.357 m 12.914,20.88 c -0.321,-0.713 -4.012,-1.666 -4.784,-1.861 -0.142,0.268 -0.389,0.469 -0.636,0.669 l 1.261,2 c 0.683,-0.041 3.876,-0.272 4.159,-0.808 m 0.092,7.196 c -0.336,-0.035 -0.645,0.216 -0.68,0.551 -0.035,0.336 0.215,0.646 0.551,0.681 0.336,0.035 0.645,-0.215 0.68,-0.551 0.035,-0.336 -0.215,-0.645 -0.551,-0.681"
             style="fill:#ffffff;fill-opacity:1;fill-rule:nonzero;stroke:none"
             id="path2605" />
        </g>
        <g
           id="g2607"
           transform="translate(133.4358,80.6324)">
          <path
             d="M 0,0 C 2.15,0 4.027,2.064 3.865,4.141 3.406,2.056 2.086,0.615 0,0"
             style="fill:#ffffff;fill-opacity:1;fill-rule:nonzero;stroke:none"
             id="path2609" />
        </g>
        <g
           id="g2611"
           transform="translate(136.3229,83.3125)">
          <path
             d="M 0,0 C -0.557,-0.624 -0.333,-0.601 -1.7,-1.593 -1.532,-1.576 -0.03,-0.795 0,0"
             style="fill:#ffffff;fill-opacity:1;fill-rule:nonzero;stroke:none"
             id="path2613" />
        </g>
        <g
           id="g2615"
           transform="translate(128.229,69.3336)">
          <path
             d="m 0,0 c -0.174,0.038 -0.292,0.083 -0.465,0.121 -0.118,0.044 -0.236,0.088 -0.354,0.132 -0.118,0.045 -0.235,0.089 -0.353,0.133 0.135,-0.212 0.265,-0.368 0.45,-0.518 0.18,-0.095 0.366,-0.245 0.545,-0.339 0,0 0.056,0.006 0.062,-0.05 C 0.3,-0.704 0.76,-0.769 1.264,-0.716 1.711,-0.669 2.203,-0.504 2.572,-0.239 2.94,0.026 3.24,0.397 3.423,0.812 3.055,0.547 2.742,0.288 2.362,0.135 1.982,-0.018 1.597,-0.115 1.205,-0.156 0.807,-0.142 0.409,-0.127 0,0"
             style="fill:#ffffff;fill-opacity:1;fill-rule:nonzero;stroke:none"
             id="path2617" />
        </g>
        <g
           id="g2619"
           transform="translate(169.3971,46.4422)">
          <path
             d="m 0,0 -4.136,-3.717 2.282,-5.023 -4.819,2.776 -4.136,-3.717 1.188,5.388 -4.819,2.775 5.541,0.583 1.188,5.387 2.282,-5.023 z"
             style="fill:#ffffff;fill-opacity:1;fill-rule:evenodd;stroke:none"
             id="path2621" />
        </g>
        <g
           id="g2623"
           transform="translate(109.5105,40.1478)">
          <path
             d="m 0,0 -4.136,-3.717 2.282,-5.023 -4.819,2.776 -4.136,-3.717 1.188,5.388 -4.819,2.775 5.541,0.583 1.188,5.387 2.282,-5.023 z"
             style="fill:#ffffff;fill-opacity:1;fill-rule:evenodd;stroke:none"
             id="path2625" />
        </g>
      </g>
    </g>
  </g>
</svg>
